<svg width="27" height="28" viewBox="0 0 27 28" fill="none" xmlns="http://www.w3.org/2000/svg">
<path d="M7.77684 6.3913C8.02674 5.86912 8.16667 5.28428 8.16667 4.66675C8.16667 2.45761 6.37581 0.666748 4.16667 0.666748C1.95753 0.666748 0.166672 2.45761 0.166672 4.66675C0.166672 6.87589 1.95753 8.66675 4.16667 8.66675C4.7842 8.66675 5.36905 8.52681 5.89123 8.27692L7.93787 10.3236C7.23984 11.3775 6.83334 12.6413 6.83334 14.0001C6.83334 15.3589 7.23984 16.6227 7.93787 17.6766L6.19073 19.4237C5.97043 19.3648 5.73888 19.3334 5.50001 19.3334C4.02725 19.3334 2.83334 20.5273 2.83334 22.0001C2.83334 23.4728 4.02725 24.6667 5.50001 24.6667C6.97276 24.6667 8.16667 23.4728 8.16667 22.0001C8.16667 21.7612 8.13526 21.5297 8.07635 21.3094L9.82349 19.5622C10.8774 20.2602 12.1412 20.6667 13.5 20.6667C14.8588 20.6667 16.1226 20.2602 17.1765 19.5622L19.2232 21.6089C18.9733 22.131 18.8333 22.7159 18.8333 23.3334C18.8333 25.5426 20.6242 27.3334 22.8333 27.3334C25.0425 27.3334 26.8333 25.5426 26.8333 23.3334C26.8333 21.1243 25.0425 19.3334 22.8333 19.3334C22.2158 19.3334 21.631 19.4734 21.1088 19.7232L19.0621 17.6766C19.7602 16.6227 20.1667 15.3589 20.1667 14.0001C20.1667 12.6413 19.7602 11.3775 19.0621 10.3236L20.8093 8.57642C21.0296 8.63534 21.2611 8.66675 21.5 8.66675C22.9728 8.66675 24.1667 7.47284 24.1667 6.00008C24.1667 4.52732 22.9728 3.33341 21.5 3.33341C20.0272 3.33341 18.8333 4.52732 18.8333 6.00008C18.8333 6.23896 18.8647 6.4705 18.9237 6.69081L17.1765 8.43794C16.1226 7.73992 14.8588 7.33341 13.5 7.33341C12.1412 7.33341 10.8774 7.73992 9.82349 8.43794L7.77684 6.3913Z" fill="white"/>
</svg>
