<svg width="121" height="24" viewBox="0 0 121 24" fill="none" xmlns="http://www.w3.org/2000/svg">
<path d="M29.5568 5.25315H32.3961V16.0713H37.6585V18.513H29.5568V5.25315Z" fill="#2E343F"/>
<path d="M38.9367 16.2608C38.502 15.4598 38.2831 14.5595 38.3016 13.6483C38.2831 12.7371 38.502 11.8368 38.9367 11.0358C39.35 10.2874 39.9759 9.67822 40.7353 9.28528C41.5768 8.87957 42.4989 8.66888 43.4331 8.66888C44.3673 8.66888 45.2895 8.87957 46.131 9.28528C46.8892 9.67978 47.5147 10.2885 47.9296 11.0358C48.3622 11.8375 48.5801 12.7375 48.562 13.6483C48.5823 14.5627 48.3643 15.4667 47.9296 16.2715C47.5119 17.0139 46.8869 17.6185 46.131 18.0113C45.2895 18.417 44.3673 18.6277 43.4331 18.6277C42.4989 18.6277 41.5768 18.417 40.7353 18.0113C39.9759 17.6184 39.35 17.0092 38.9367 16.2608ZM45.8562 13.6483C45.8862 12.9151 45.6502 12.1958 45.1917 11.6229C44.9759 11.3702 44.7054 11.17 44.4007 11.0373C44.096 10.9046 43.7652 10.843 43.4331 10.857C43.1014 10.8437 42.771 10.9068 42.4674 11.0414C42.1639 11.1761 41.8954 11.3787 41.6826 11.6336C41.2268 12.2074 40.9945 12.927 41.0288 13.659C40.9945 14.391 41.2268 15.1106 41.6826 15.6844C41.8954 15.9393 42.1639 16.1419 42.4674 16.2765C42.771 16.4112 43.1014 16.4743 43.4331 16.4609C43.7669 16.4724 44.0988 16.4074 44.4036 16.271C44.7084 16.1346 44.978 15.9303 45.1917 15.6737C45.6502 15.1008 45.8862 14.3815 45.8562 13.6483Z" fill="#2E343F"/>
<path d="M50.2939 16.2608C49.8592 15.4598 49.6403 14.5595 49.6588 13.6483C49.6403 12.7371 49.8592 11.8368 50.2939 11.0358C50.7072 10.2874 51.3331 9.67823 52.0925 9.28529C52.9335 8.87963 53.8552 8.66895 54.789 8.66895C55.7228 8.66895 56.6445 8.87963 57.4855 9.28529C58.2449 9.67823 58.8708 10.2874 59.2841 11.0358C59.7188 11.8368 59.9377 12.7371 59.9192 13.6483C59.9399 14.5631 59.721 15.4674 59.2841 16.2715C58.868 17.0151 58.2426 17.6201 57.4855 18.0113C56.6445 18.417 55.7228 18.6277 54.789 18.6277C53.8552 18.6277 52.9335 18.417 52.0925 18.0113C51.3331 17.6184 50.7072 17.0092 50.2939 16.2608ZM57.2134 13.6483C57.2464 12.9165 57.0143 12.1973 56.5596 11.6229C56.336 11.3783 56.064 11.1829 55.7607 11.0492C55.4575 10.9155 55.1297 10.8464 54.7984 10.8464C54.467 10.8464 54.1392 10.9155 53.836 11.0492C53.5327 11.1829 53.2607 11.3783 53.0371 11.6229C52.5872 12.1992 52.3599 12.9182 52.3967 13.6483C52.3629 14.3798 52.5941 15.099 53.0478 15.6737C53.2713 15.9184 53.5434 16.1138 53.8466 16.2475C54.1499 16.3812 54.4776 16.4502 54.809 16.4502C55.1404 16.4502 55.4682 16.3812 55.7714 16.2475C56.0747 16.1138 56.3467 15.9184 56.5703 15.6737C57.0211 15.0978 57.2494 14.3788 57.2134 13.6483Z" fill="#2E343F"/>
<path d="M64.0634 5.25315V12.9278L67.8874 8.7836H70.8789L67.4098 12.5889L71.0763 18.513H67.9835L65.5231 14.577L64.0634 16.146V18.513H61.3949V5.25315H64.0634Z" fill="#2E343F"/>
<path d="M74.3613 16.3168C74.7921 16.6027 75.3016 16.7464 75.8183 16.7278C76.2784 16.7515 76.737 16.6598 77.1526 16.4609C77.3057 16.3917 77.435 16.2788 77.5242 16.1364C77.6134 15.994 77.6587 15.8284 77.6542 15.6604C77.6624 15.5546 77.6462 15.4484 77.6069 15.3498C77.5676 15.2513 77.5062 15.1631 77.4274 15.092C77.2376 14.9527 77.017 14.8612 76.7843 14.8251C76.5175 14.7691 76.0531 14.7024 75.4207 14.6277C74.6985 14.5409 73.9845 14.3954 73.2859 14.1927C72.7647 14.0428 72.2937 13.7552 71.9223 13.3601C71.5656 12.9381 71.3824 12.3963 71.4099 11.8444C71.403 11.2429 71.5901 10.6552 71.9436 10.1686C72.3161 9.66262 72.8239 9.27225 73.4086 9.04245C74.1008 8.76646 74.8411 8.63128 75.5861 8.64484C76.9115 8.6573 77.9789 8.94105 78.7884 9.4961C79.1771 9.74734 79.4996 10.0885 79.7286 10.4908C79.9576 10.893 80.0863 11.3445 80.1039 11.807H77.5689C77.5485 11.6229 77.4859 11.4459 77.3859 11.2899C77.2859 11.134 77.1513 11.0032 76.9925 10.9077C76.5929 10.66 76.128 10.5382 75.6582 10.5582C75.2334 10.5385 74.8114 10.6363 74.4387 10.841C74.2996 10.913 74.1828 11.0217 74.1009 11.1553C74.0191 11.2888 73.9753 11.4422 73.9743 11.5989C73.9683 11.6978 73.9876 11.7965 74.0306 11.8858C74.0736 11.975 74.1388 12.0517 74.2199 12.1086C74.4146 12.2351 74.6337 12.3196 74.863 12.3568C75.1298 12.4048 75.5701 12.4635 76.1972 12.5249C77.5101 12.6779 78.5171 12.959 79.218 13.3681C79.9172 13.7791 80.2667 14.4809 80.2667 15.4789C80.2759 16.0813 80.0792 16.6688 79.709 17.1441C79.3026 17.6486 78.7654 18.0317 78.1559 18.2515C77.4202 18.5238 76.64 18.656 75.8557 18.6411C74.5054 18.6411 73.4077 18.3414 72.5627 17.7418C72.161 17.4689 71.8303 17.104 71.5982 16.6774C71.3661 16.2508 71.2393 15.775 71.2284 15.2895H73.7449C73.763 15.4962 73.8279 15.6962 73.9347 15.8742C74.0415 16.0522 74.1874 16.2035 74.3613 16.3168Z" fill="#2E343F"/>
<path d="M86.4177 18.6278C85.4966 18.6486 84.5851 18.4366 83.7678 18.0114C83.0242 17.6135 82.4151 17.0044 82.0173 16.2608C81.5969 15.4552 81.3858 14.5568 81.4035 13.6483C81.3833 12.737 81.5945 11.8354 82.0173 11.0278C82.4192 10.2857 83.0321 9.67929 83.7785 9.28529C84.6021 8.85906 85.5199 8.64707 86.447 8.66886C87.7475 8.66886 88.8069 9.00065 89.6252 9.66422C90.4623 10.356 91.0043 11.3408 91.1409 12.4181H88.3683C88.2763 11.971 88.0366 11.5679 87.6879 11.2733C87.3299 10.9823 86.8787 10.8307 86.4177 10.8464C86.0986 10.8356 85.7814 10.9003 85.4921 11.0353C85.2027 11.1702 84.9493 11.3715 84.7525 11.6229C84.3154 12.205 84.0946 12.9211 84.1281 13.6483C84.0946 14.3755 84.3154 15.0916 84.7525 15.6737C84.9482 15.9271 85.2011 16.1304 85.4906 16.2673C85.78 16.4041 86.0977 16.4705 86.4177 16.4609C86.8883 16.4775 87.349 16.323 87.7146 16.026C88.0709 15.7189 88.3088 15.297 88.387 14.8331H91.1329C91.0082 15.9223 90.4693 16.9217 89.6279 17.6244C88.8006 18.2933 87.7306 18.6278 86.4177 18.6278Z" fill="#2E343F"/>
<path d="M92.6913 16.2608C92.2567 15.4598 92.0378 14.5595 92.0562 13.6483C92.0378 12.7371 92.2567 11.8368 92.6913 11.0358C93.1047 10.2874 93.7306 9.67823 94.4899 9.28529C95.331 8.87963 96.2527 8.66895 97.1865 8.66895C98.1202 8.66895 99.042 8.87963 99.883 9.28529C100.642 9.67823 101.268 10.2874 101.682 11.0358C102.116 11.8368 102.335 12.7371 102.317 13.6483C102.337 14.5631 102.118 15.4674 101.682 16.2715C101.269 17.0132 100.648 17.618 99.8963 18.0113C99.0553 18.417 98.1336 18.6277 97.1998 18.6277C96.266 18.6277 95.3443 18.417 94.5033 18.0113C93.739 17.6205 93.1082 17.0112 92.6913 16.2608ZM99.6108 13.6483C99.6439 12.9165 99.4117 12.1973 98.957 11.6229C98.7335 11.3783 98.4614 11.1829 98.1582 11.0492C97.855 10.9155 97.5272 10.8464 97.1958 10.8464C96.8644 10.8464 96.5367 10.9155 96.2334 11.0492C95.9302 11.1829 95.6581 11.3783 95.4346 11.6229C94.9808 12.1977 94.7497 12.9168 94.7835 13.6483C94.7497 14.3798 94.9808 15.099 95.4346 15.6737C95.6581 15.9184 95.9302 16.1138 96.2334 16.2475C96.5367 16.3812 96.8644 16.4502 97.1958 16.4502C97.5272 16.4502 97.855 16.3812 98.1582 16.2475C98.4614 16.1138 98.7335 15.9184 98.957 15.6737C99.4127 15.0997 99.6458 14.3805 99.6135 13.6483H99.6108Z" fill="#2E343F"/>
<path d="M112.956 18.513H110.592L110.344 17.3389C110.002 17.763 109.565 18.1007 109.069 18.3246C108.572 18.5485 108.03 18.6524 107.486 18.6278C106.975 18.6473 106.465 18.5643 105.986 18.3837C105.508 18.2032 105.07 17.9287 104.7 17.5764C103.988 16.8772 103.632 15.7066 103.632 14.0646V8.78359H106.301V13.7417C106.301 14.6277 106.456 15.2921 106.765 15.7404C106.926 15.9655 107.142 16.1456 107.393 16.2633C107.643 16.381 107.919 16.4326 108.195 16.4129C108.496 16.4264 108.794 16.3652 109.065 16.2348C109.335 16.1044 109.569 15.9088 109.746 15.6657C110.114 15.1667 110.296 14.4675 110.296 13.5736V8.78359H112.964L112.956 18.513Z" fill="#2E343F"/>
<path d="M113.903 11.0358V8.7836H115.505V6.0537H118.173V8.7836H120.388V11.0358H118.173V15.3055C118.149 15.5703 118.226 15.8345 118.389 16.0446C118.49 16.1294 118.606 16.1931 118.732 16.232C118.857 16.271 118.99 16.2844 119.12 16.2715H120.5V18.5237H118.309C116.452 18.5237 115.524 17.5959 115.526 15.7404V11.0358H113.903Z" fill="#2E343F"/>
<path d="M14.3564 3.20005L0.5 11.2V6.40005L10.2026 0.800049L14.3564 3.20005Z" fill="#2E343F"/>
<path d="M19.9051 6.40005V9.16928L2.9 18.9847L0.5 17.6V14.9949L17.6385 5.09748L19.9051 6.40005Z" fill="#2E343F"/>
<path d="M6.18205 20.8821L19.9051 12.9642V17.6L10.2026 23.2L6.18205 20.8821Z" fill="#2E343F"/>
</svg>
